<svg width="28" height="28" viewBox="0 0 28 28" fill="none" xmlns="http://www.w3.org/2000/svg">
<g clip-path="url(#clip0_220_17566)">
<path d="M0.600917 13.8327C0.60026 16.1852 1.2196 18.4823 2.39727 20.507L0.488289 27.4247L7.62123 25.5685C9.59411 26.6344 11.8046 27.193 14.0508 27.1931H14.0568C21.4721 27.1931 27.5084 21.2043 27.5116 13.8432C27.513 10.2762 26.1147 6.9221 23.5741 4.39862C21.034 1.87537 17.6557 0.485026 14.0562 0.483398C6.63995 0.483398 0.604088 6.47193 0.601026 13.8327" fill="url(#paint0_linear_220_17566)"/>
<path d="M0.120557 13.8281C0.119791 16.2653 0.761332 18.6445 1.98099 20.7417L0.0035553 27.9074L7.39226 25.9846C9.42808 27.0863 11.7202 27.6671 14.0526 27.668H14.0586C21.74 27.668 27.9932 21.4637 27.9964 13.8392C27.9978 10.144 26.5491 6.66932 23.9178 4.05544C21.2861 1.44189 17.787 0.00151938 14.0586 0C6.37587 0 0.123619 6.20341 0.120557 13.8281ZM4.5208 20.3805L4.24492 19.9459C3.08518 18.1157 2.47305 16.0007 2.47393 13.829C2.47633 7.49152 7.67295 2.3355 14.063 2.3355C17.1575 2.33681 20.0657 3.53408 22.2531 5.70636C24.4404 7.87885 25.644 10.7668 25.6432 13.8383C25.6403 20.1757 20.4436 25.3324 14.0586 25.3324H14.054C11.975 25.3313 9.936 24.7772 8.1578 23.73L7.73462 23.4809L3.35002 24.6219L4.5208 20.3805Z" fill="url(#paint1_linear_220_17566)"/>
<path d="M10.575 8.04716C10.3141 7.47164 10.0396 7.46003 9.79145 7.44994C9.58828 7.44125 9.35602 7.44191 9.12399 7.44191C8.89174 7.44191 8.51438 7.52862 8.19541 7.87428C7.87612 8.22026 6.97641 9.05636 6.97641 10.7569C6.97641 12.4574 8.22439 14.1009 8.39836 14.3318C8.57255 14.5622 10.8076 18.1635 14.3474 19.549C17.2893 20.7003 17.888 20.4713 18.5264 20.4136C19.165 20.3561 20.587 19.5777 20.8771 18.7706C21.1674 17.9636 21.1674 17.2719 21.0803 17.1273C20.9933 16.9833 20.7611 16.8968 20.4128 16.724C20.0645 16.5512 18.3522 15.7149 18.0331 15.5996C17.7138 15.4843 17.4816 15.4268 17.2494 15.7729C17.0171 16.1184 16.3502 16.8968 16.1469 17.1273C15.9439 17.3584 15.7406 17.3871 15.3924 17.2142C15.0439 17.0408 13.9224 16.6763 12.5917 15.4989C11.5564 14.5827 10.8575 13.4513 10.6543 13.1052C10.4511 12.7596 10.6325 12.5723 10.8072 12.4001C10.9636 12.2452 11.1556 11.9965 11.3299 11.7947C11.5035 11.5929 11.5614 11.4488 11.6776 11.2183C11.7938 10.9876 11.7356 10.7857 11.6487 10.6129C11.5614 10.44 10.8847 8.73056 10.575 8.04716Z" fill="white"/>
</g>
<defs>
<linearGradient id="paint0_linear_220_17566" x1="13.9999" y1="27.4247" x2="13.9999" y2="0.483398" gradientUnits="userSpaceOnUse">
<stop stop-color="#1FAF38"/>
<stop offset="1" stop-color="#60D669"/>
</linearGradient>
<linearGradient id="paint1_linear_220_17566" x1="14" y1="27.9074" x2="14" y2="0" gradientUnits="userSpaceOnUse">
<stop stop-color="#F9F9F9"/>
<stop offset="1" stop-color="white"/>
</linearGradient>
<clipPath id="clip0_220_17566">
<rect width="28" height="28" fill="white"/>
</clipPath>
</defs>
</svg>
